<svg width="25" height="24" viewBox="0 0 25 24" fill="none" xmlns="http://www.w3.org/2000/svg">
<path d="M16.6231 2H8.24311C4.60311 2 2.43311 4.17 2.43311 7.81V16.18C2.43311 19.83 4.60311 22 8.24311 22H16.6131C20.2531 22 22.4231 19.83 22.4231 16.19V7.81C22.4331 4.17 20.2631 2 16.6231 2ZM16.4331 12.75H13.1831V16C13.1831 16.41 12.8431 16.75 12.4331 16.75C12.0231 16.75 11.6831 16.41 11.6831 16V12.75H8.43311C8.02311 12.75 7.68311 12.41 7.68311 12C7.68311 11.59 8.02311 11.25 8.43311 11.25H11.6831V8C11.6831 7.59 12.0231 7.25 12.4331 7.25C12.8431 7.25 13.1831 7.59 13.1831 8V11.25H16.4331C16.8431 11.25 17.1831 11.59 17.1831 12C17.1831 12.41 16.8431 12.75 16.4331 12.75Z" fill="#292D32"/>
</svg>
