<svg width="47" height="47" viewBox="0 0 47 47" fill="none" xmlns="http://www.w3.org/2000/svg">
<path d="M31.2397 3.94226H15.1781C8.2014 3.94226 4.04224 8.10143 4.04224 15.0781V31.1206C4.04224 38.1164 8.2014 42.2756 15.1781 42.2756H31.2206C38.1972 42.2756 42.3564 38.1164 42.3564 31.1398V15.0781C42.3756 8.10143 38.2164 3.94226 31.2397 3.94226ZM30.8756 24.5464H24.6464V30.7756C24.6464 31.5614 23.9947 32.2131 23.2089 32.2131C22.4231 32.2131 21.7714 31.5614 21.7714 30.7756V24.5464H15.5422C14.7564 24.5464 14.1047 23.8948 14.1047 23.1089C14.1047 22.3231 14.7564 21.6714 15.5422 21.6714H21.7714V15.4423C21.7714 14.6564 22.4231 14.0048 23.2089 14.0048C23.9947 14.0048 24.6464 14.6564 24.6464 15.4423V21.6714H30.8756C31.6614 21.6714 32.3131 22.3231 32.3131 23.1089C32.3131 23.8948 31.6614 24.5464 30.8756 24.5464Z" fill="#1C1447"/>
</svg>
