<svg width="25" height="25" viewBox="0 0 25 25" fill="none" xmlns="http://www.w3.org/2000/svg">
<path fill-rule="evenodd" clip-rule="evenodd" d="M19.5919 19.9273C20.1819 19.0273 20.4019 18.5673 20.8519 17.5573C17.5319 16.2973 17.002 11.5673 20.2819 9.75732C19.2819 8.49732 17.872 7.76733 16.542 7.76733C15.582 7.76733 14.9219 8.01734 14.3319 8.24734C13.8319 8.43734 13.382 8.60733 12.822 8.60733C12.222 8.60733 11.6919 8.41735 11.1319 8.21735C10.5219 7.99735 9.88194 7.76733 9.08194 7.76733C7.59194 7.76733 6.00195 8.67734 4.99195 10.2373C3.57195 12.4373 3.82195 16.5573 6.11195 20.0773C6.93195 21.3373 8.03195 22.7473 9.46195 22.7673C10.0619 22.7773 10.4519 22.5973 10.8819 22.4073C11.3719 22.1873 11.9019 21.9473 12.8319 21.9473C13.7619 21.9373 14.2819 22.1873 14.7719 22.4073C15.1919 22.5973 15.5719 22.7773 16.1619 22.7673C17.6119 22.7473 18.7719 21.1873 19.5919 19.9273Z" fill="black"/>
<path fill-rule="evenodd" clip-rule="evenodd" d="M16.3319 2.76733C16.4919 3.86733 16.0419 4.95735 15.4519 5.71735C14.8219 6.53735 13.7219 7.17733 12.6619 7.13733C12.4719 6.07733 12.9619 4.98732 13.5619 4.25732C14.2319 3.45732 15.3619 2.83733 16.3319 2.76733Z" fill="black"/>
</svg>
