<svg width="25" height="24" viewBox="0 0 25 24" fill="none" xmlns="http://www.w3.org/2000/svg">
<path d="M17.3481 3.56V2C17.3481 1.59 17.0081 1.25 16.5981 1.25C16.1881 1.25 15.8481 1.59 15.8481 2V3.5H9.34815V2C9.34815 1.59 9.00815 1.25 8.59815 1.25C8.18815 1.25 7.84815 1.59 7.84815 2V3.56C5.14814 3.81 3.83814 5.42 3.63814 7.81C3.61814 8.1 3.85814 8.34 4.13814 8.34H21.0581C21.3481 8.34 21.5881 8.09 21.5581 7.81C21.3581 5.42 20.0481 3.81 17.3481 3.56Z" fill="#292D32"/>
<path d="M20.5981 9.83997H4.59814C4.04814 9.83997 3.59814 10.29 3.59814 10.84V17C3.59814 20 5.09814 22 8.59814 22H16.5981C20.0981 22 21.5981 20 21.5981 17V10.84C21.5981 10.29 21.1481 9.83997 20.5981 9.83997ZM9.80814 18.21C9.75814 18.25 9.70814 18.3 9.65814 18.33C9.59814 18.37 9.53814 18.4 9.47814 18.42C9.41814 18.45 9.35814 18.47 9.29814 18.48C9.22814 18.49 9.16814 18.5 9.09814 18.5C8.96814 18.5 8.83814 18.47 8.71814 18.42C8.58814 18.37 8.48814 18.3 8.38814 18.21C8.20814 18.02 8.09814 17.76 8.09814 17.5C8.09814 17.24 8.20814 16.98 8.38814 16.79C8.48814 16.7 8.58814 16.63 8.71814 16.58C8.89814 16.5 9.09814 16.48 9.29814 16.52C9.35814 16.53 9.41814 16.55 9.47814 16.58C9.53814 16.6 9.59814 16.63 9.65814 16.67C9.70814 16.71 9.75814 16.75 9.80814 16.79C9.98814 16.98 10.0981 17.24 10.0981 17.5C10.0981 17.76 9.98814 18.02 9.80814 18.21ZM9.80814 14.71C9.61814 14.89 9.35814 15 9.09814 15C8.83814 15 8.57814 14.89 8.38814 14.71C8.20814 14.52 8.09814 14.26 8.09814 14C8.09814 13.74 8.20814 13.48 8.38814 13.29C8.66814 13.01 9.10814 12.92 9.47814 13.08C9.60814 13.13 9.71814 13.2 9.80814 13.29C9.98814 13.48 10.0981 13.74 10.0981 14C10.0981 14.26 9.98814 14.52 9.80814 14.71ZM13.3081 18.21C13.1181 18.39 12.8581 18.5 12.5981 18.5C12.3381 18.5 12.0781 18.39 11.8881 18.21C11.7081 18.02 11.5981 17.76 11.5981 17.5C11.5981 17.24 11.7081 16.98 11.8881 16.79C12.2581 16.42 12.9381 16.42 13.3081 16.79C13.4881 16.98 13.5981 17.24 13.5981 17.5C13.5981 17.76 13.4881 18.02 13.3081 18.21ZM13.3081 14.71C13.2581 14.75 13.2081 14.79 13.1581 14.83C13.0981 14.87 13.0381 14.9 12.9781 14.92C12.9181 14.95 12.8581 14.97 12.7981 14.98C12.7281 14.99 12.6681 15 12.5981 15C12.3381 15 12.0781 14.89 11.8881 14.71C11.7081 14.52 11.5981 14.26 11.5981 14C11.5981 13.74 11.7081 13.48 11.8881 13.29C11.9781 13.2 12.0881 13.13 12.2181 13.08C12.5881 12.92 13.0281 13.01 13.3081 13.29C13.4881 13.48 13.5981 13.74 13.5981 14C13.5981 14.26 13.4881 14.52 13.3081 14.71ZM16.8081 18.21C16.6181 18.39 16.3581 18.5 16.0981 18.5C15.8381 18.5 15.5781 18.39 15.3881 18.21C15.2081 18.02 15.0981 17.76 15.0981 17.5C15.0981 17.24 15.2081 16.98 15.3881 16.79C15.7581 16.42 16.4381 16.42 16.8081 16.79C16.9881 16.98 17.0981 17.24 17.0981 17.5C17.0981 17.76 16.9881 18.02 16.8081 18.21ZM16.8081 14.71C16.7581 14.75 16.7081 14.79 16.6581 14.83C16.5981 14.87 16.5381 14.9 16.4781 14.92C16.4181 14.95 16.3581 14.97 16.2981 14.98C16.2281 14.99 16.1581 15 16.0981 15C15.8381 15 15.5781 14.89 15.3881 14.71C15.2081 14.52 15.0981 14.26 15.0981 14C15.0981 13.74 15.2081 13.48 15.3881 13.29C15.4881 13.2 15.5881 13.13 15.7181 13.08C15.8981 13 16.0981 12.98 16.2981 13.02C16.3581 13.03 16.4181 13.05 16.4781 13.08C16.5381 13.1 16.5981 13.13 16.6581 13.17C16.7081 13.21 16.7581 13.25 16.8081 13.29C16.9881 13.48 17.0981 13.74 17.0981 14C17.0981 14.26 16.9881 14.52 16.8081 14.71Z" fill="#292D32"/>
</svg>
