<svg width="25" height="24" viewBox="0 0 25 24" fill="none" xmlns="http://www.w3.org/2000/svg">
<path d="M21.9438 7.99996C21.9438 8.40996 21.6038 8.74996 21.1938 8.74996H3.19385C2.78385 8.74996 2.44385 8.40996 2.44385 7.99996C2.44385 7.58996 2.78385 7.24996 3.19385 7.24996H4.21385L4.59385 5.43996C4.95385 3.68996 5.70385 2.07996 8.68385 2.07996H15.7038C18.6838 2.07996 19.4338 3.68996 19.7938 5.43996L20.1738 7.24996H21.1938C21.6038 7.24996 21.9438 7.58996 21.9438 7.99996Z" fill="#292D32"/>
<path d="M22.3738 13.66C22.2238 12.01 21.7838 10.25 18.5738 10.25H5.81384C2.60384 10.25 2.17384 12.01 2.01384 13.66L1.45384 19.75C1.38384 20.51 1.63384 21.27 2.15384 21.84C2.68384 22.42 3.43384 22.75 4.23384 22.75H6.11384C7.73384 22.75 8.04384 21.82 8.24384 21.21L8.44384 20.61C8.67384 19.92 8.73384 19.75 9.63384 19.75H14.7538C15.6538 19.75 15.6838 19.85 15.9438 20.61L16.1438 21.21C16.3438 21.82 16.6538 22.75 18.2738 22.75H20.1538C20.9438 22.75 21.7038 22.42 22.2338 21.84C22.7538 21.27 23.0038 20.51 22.9338 19.75L22.3738 13.66ZM9.19384 15.75H6.19384C5.78384 15.75 5.44384 15.41 5.44384 15C5.44384 14.59 5.78384 14.25 6.19384 14.25H9.19384C9.60384 14.25 9.94384 14.59 9.94384 15C9.94384 15.41 9.60384 15.75 9.19384 15.75ZM18.1938 15.75H15.1938C14.7838 15.75 14.4438 15.41 14.4438 15C14.4438 14.59 14.7838 14.25 15.1938 14.25H18.1938C18.6038 14.25 18.9438 14.59 18.9438 15C18.9438 15.41 18.6038 15.75 18.1938 15.75Z" fill="#292D32"/>
</svg>
