<svg width="25" height="25" viewBox="0 0 25 25" fill="none" xmlns="http://www.w3.org/2000/svg">
<path d="M22.1831 22.0173C22.1831 22.4273 21.8431 22.7673 21.4331 22.7673H2.93311C2.52311 22.7673 2.18311 22.4273 2.18311 22.0173C2.18311 21.6073 2.52311 21.2673 2.93311 21.2673H21.4331C21.8431 21.2673 22.1831 21.6073 22.1831 22.0173Z" fill="#292D32"/>
<path d="M15.5731 5.28734L4.83311 16.0273C4.42311 16.4373 3.76311 16.4373 3.36311 16.0273H3.35311C1.96311 14.6273 1.96311 12.3673 3.35311 10.9773L10.5031 3.82734C11.9031 2.42734 14.1631 2.42734 15.5631 3.82734C15.9731 4.21734 15.9731 4.88734 15.5731 5.28734Z" fill="#292D32"/>
<path d="M21.0031 9.25728L17.9531 6.20728C17.5431 5.79728 16.8831 5.79728 16.4831 6.20728L5.74311 16.9473C5.33311 17.3473 5.33311 18.0073 5.74311 18.4173L8.79311 21.4773C10.1931 22.8673 12.4531 22.8673 13.8531 21.4773L20.9931 14.3273C22.4131 12.9273 22.4131 10.6573 21.0031 9.25728ZM12.9431 18.2873L11.7331 19.5073C11.4831 19.7573 11.0731 19.7573 10.8131 19.5073C10.5631 19.2573 10.5631 18.8473 10.8131 18.5873L12.0331 17.3673C12.2731 17.1273 12.6931 17.1273 12.9431 17.3673C13.1931 17.6173 13.1931 18.0473 12.9431 18.2873ZM16.9131 14.3173L14.4731 16.7673C14.2231 17.0073 13.8131 17.0073 13.5531 16.7673C13.3031 16.5173 13.3031 16.1073 13.5531 15.8473L16.0031 13.3973C16.2431 13.1573 16.6631 13.1573 16.9131 13.3973C17.1631 13.6573 17.1631 14.0673 16.9131 14.3173Z" fill="#292D32"/>
</svg>
