<svg width="25" height="24" viewBox="0 0 25 24" fill="none" xmlns="http://www.w3.org/2000/svg">
<path d="M12.1802 22.75C8.18018 22.75 4.93018 19.88 4.93018 16.35V12.65C4.93018 12.24 5.27018 11.9 5.68018 11.9C6.09018 11.9 6.43018 12.24 6.43018 12.65C6.43018 15.27 8.90018 17.25 12.1802 17.25C15.4602 17.25 17.9302 15.27 17.9302 12.65C17.9302 12.24 18.2702 11.9 18.6802 11.9C19.0902 11.9 19.4302 12.24 19.4302 12.65V16.35C19.4302 19.88 16.1802 22.75 12.1802 22.75ZM6.43018 16.46C6.50018 19.11 9.05018 21.25 12.1802 21.25C15.3102 21.25 17.8602 19.11 17.9302 16.46C16.6302 17.87 14.5702 18.75 12.1802 18.75C9.79018 18.75 7.74018 17.87 6.43018 16.46Z" fill="#292D32"/>
<path d="M12.1802 13.75C9.42018 13.75 6.94016 12.51 5.73016 10.51C5.21016 9.66 4.93018 8.67 4.93018 7.65C4.93018 5.93 5.70018 4.31 7.09018 3.09C8.45018 1.9 10.2602 1.25 12.1802 1.25C14.1002 1.25 15.9002 1.9 17.2702 3.08C18.6602 4.31 19.4302 5.93 19.4302 7.65C19.4302 8.67 19.1502 9.65 18.6302 10.51C17.4202 12.51 14.9402 13.75 12.1802 13.75ZM12.1802 2.75C10.6202 2.75 9.16019 3.27 8.07019 4.23C7.01019 5.15 6.43018 6.37 6.43018 7.65C6.43018 8.4 6.63016 9.1 7.01016 9.73C7.96016 11.29 9.94018 12.25 12.1802 12.25C14.4202 12.25 16.4002 11.28 17.3502 9.73C17.7402 9.1 17.9302 8.4 17.9302 7.65C17.9302 6.37 17.3502 5.15 16.2802 4.21C15.1902 3.27 13.7402 2.75 12.1802 2.75Z" fill="#292D32"/>
<path d="M12.1802 18.75C8.05018 18.75 4.93018 16.13 4.93018 12.65V7.65C4.93018 4.12 8.18018 1.25 12.1802 1.25C14.1002 1.25 15.9002 1.9 17.2702 3.08C18.6602 4.31 19.4302 5.93 19.4302 7.65V12.65C19.4302 16.13 16.3102 18.75 12.1802 18.75ZM12.1802 2.75C9.01018 2.75 6.43018 4.95 6.43018 7.65V12.65C6.43018 15.27 8.90018 17.25 12.1802 17.25C15.4602 17.25 17.9302 15.27 17.9302 12.65V7.65C17.9302 6.37 17.3502 5.15 16.2802 4.21C15.1902 3.27 13.7402 2.75 12.1802 2.75Z" fill="#292D32"/>
</svg>
