<svg width="25" height="25" viewBox="0 0 25 25" fill="none" xmlns="http://www.w3.org/2000/svg">
<path d="M13.5049 16.6873H14.1549C14.8049 16.6873 15.3449 16.1073 15.3449 15.4073C15.3449 14.5373 15.0349 14.3673 14.5249 14.1873L13.5149 13.8373V16.6873H13.5049Z" fill="#292D32"/>
<path d="M12.7249 2.66738C7.20489 2.68738 2.73489 7.17738 2.75489 12.6974C2.77489 18.2174 7.26489 22.6874 12.7849 22.6674C18.3049 22.6474 22.7749 18.1574 22.7549 12.6374C22.7349 7.11737 18.2449 2.65738 12.7249 2.66738ZM15.0149 12.7674C15.7949 13.0374 16.8449 13.6174 16.8449 15.4074C16.8449 16.9474 15.6349 18.1874 14.1549 18.1874H13.5049V18.7674C13.5049 19.1774 13.1649 19.5174 12.7549 19.5174C12.3449 19.5174 12.0049 19.1774 12.0049 18.7674V18.1874H11.6449C10.0049 18.1874 8.67489 16.8074 8.67489 15.1074C8.67489 14.6974 9.01489 14.3574 9.42489 14.3574C9.83489 14.3574 10.1749 14.6974 10.1749 15.1074C10.1749 15.9774 10.8349 16.6874 11.6449 16.6874H12.0049V13.3074L10.4949 12.7674C9.71489 12.4974 8.66489 11.9174 8.66489 10.1274C8.66489 8.58737 9.87489 7.34737 11.3549 7.34737H12.0049V6.76737C12.0049 6.35737 12.3449 6.01738 12.7549 6.01738C13.1649 6.01738 13.5049 6.35737 13.5049 6.76737V7.34737H13.8649C15.5049 7.34737 16.8349 8.72737 16.8349 10.4274C16.8349 10.8374 16.4949 11.1774 16.0849 11.1774C15.6749 11.1774 15.3349 10.8374 15.3349 10.4274C15.3349 9.55737 14.6749 8.84737 13.8649 8.84737H13.5049V12.2274L15.0149 12.7674Z" fill="#292D32"/>
<path d="M10.1749 10.1373C10.1749 11.0073 10.4849 11.1773 10.9949 11.3573L12.0049 11.7073V8.84729H11.3549C10.7049 8.84729 10.1749 9.42729 10.1749 10.1373Z" fill="#292D32"/>
</svg>
