<svg width="25" height="24" viewBox="0 0 25 24" fill="none" xmlns="http://www.w3.org/2000/svg">
<path d="M12.896 18.75C12.486 18.75 12.146 18.41 12.146 18V17C12.146 16.59 12.486 16.25 12.896 16.25C13.306 16.25 13.646 16.59 13.646 17V18C13.646 18.41 13.306 18.75 12.896 18.75Z" fill="#292D32"/>
<path d="M12.896 22.75C12.486 22.75 12.146 22.41 12.146 22V21C12.146 20.59 12.486 20.25 12.896 20.25C13.306 20.25 13.646 20.59 13.646 21V22C13.646 22.41 13.306 22.75 12.896 22.75Z" fill="#292D32"/>
<path d="M2.896 22.75C2.836 22.75 2.776 22.74 2.716 22.73C2.316 22.63 2.066 22.22 2.166 21.82L3.166 17.82C3.266 17.42 3.666 17.17 4.076 17.27C4.476 17.37 4.726 17.78 4.626 18.18L3.626 22.18C3.536 22.52 3.236 22.75 2.896 22.75Z" fill="#292D32"/>
<path d="M22.6486 22.5026C22.3086 22.5026 22.0086 22.2726 21.9186 21.9326L20.9186 17.9326C20.8186 17.5326 21.0586 17.1226 21.4686 17.0226C21.8686 16.9226 22.2786 17.1626 22.3786 17.5726L23.3786 21.5726C23.4786 21.9726 23.2386 22.3826 22.8286 22.4826C22.7686 22.4926 22.7086 22.5026 22.6486 22.5026Z" fill="#292D32"/>
<path d="M20.036 5.3C20.036 5.6 19.786 5.84 19.496 5.84H6.426C6.126 5.84 5.886 5.59 5.886 5.3C5.886 5 6.136 4.76 6.426 4.76H7.166L7.446 3.45C7.706 2.17 8.246 1 10.406 1H15.496C17.656 1 18.206 2.17 18.466 3.44L18.746 4.75H19.486C19.786 4.75 20.036 5 20.036 5.3Z" fill="#292D32"/>
<path d="M20.346 9.40005C20.236 8.20005 19.916 6.93005 17.586 6.93005H8.326C5.996 6.93005 5.686 8.21005 5.566 9.40005L5.156 13.8201C5.106 14.3701 5.286 14.9201 5.666 15.3401C6.056 15.7601 6.596 16.0001 7.176 16.0001H8.536C9.716 16.0001 9.936 15.3301 10.086 14.8801L10.236 14.4401C10.406 13.9401 10.446 13.8201 11.096 13.8201H14.816C15.466 13.8201 15.486 13.8901 15.676 14.4401L15.826 14.8801C15.966 15.3301 16.196 16.0001 17.366 16.0001H18.726C19.296 16.0001 19.846 15.7601 20.236 15.3401C20.616 14.9301 20.796 14.3701 20.746 13.8201L20.346 9.40005ZM10.776 10.9201H8.606C8.306 10.9201 8.066 10.6701 8.066 10.3801C8.066 10.0901 8.316 9.84005 8.606 9.84005H10.786C11.086 9.84005 11.326 10.0901 11.326 10.3801C11.326 10.6701 11.076 10.9201 10.776 10.9201ZM17.306 10.9201H15.126C14.826 10.9201 14.586 10.6701 14.586 10.3801C14.586 10.0901 14.836 9.84005 15.126 9.84005H17.306C17.606 9.84005 17.846 10.0901 17.846 10.3801C17.846 10.6701 17.606 10.9201 17.306 10.9201Z" fill="#292D32"/>
</svg>
