<svg width="25" height="24" viewBox="0 0 25 24" fill="none" xmlns="http://www.w3.org/2000/svg">
<path d="M21.002 22H3.00195C2.59195 22 2.25195 21.66 2.25195 21.25C2.25195 20.84 2.59195 20.5 3.00195 20.5H21.002C21.412 20.5 21.752 20.84 21.752 21.25C21.752 21.66 21.412 22 21.002 22Z" fill="#292D32"/>
<path d="M19.022 3.48004C17.082 1.54004 15.182 1.49004 13.192 3.48004L11.982 4.69004C11.882 4.79004 11.842 4.95004 11.882 5.09004C12.642 7.74004 14.762 9.86004 17.412 10.62C17.452 10.63 17.492 10.64 17.532 10.64C17.642 10.64 17.742 10.6 17.822 10.52L19.022 9.31004C20.012 8.33004 20.492 7.38004 20.492 6.42004C20.502 5.43004 20.022 4.47004 19.022 3.48004Z" fill="#292D32"/>
<path d="M15.612 11.53C15.322 11.39 15.042 11.25 14.772 11.09C14.552 10.96 14.342 10.82 14.132 10.67C13.962 10.56 13.762 10.4 13.572 10.24C13.552 10.23 13.482 10.17 13.402 10.09C13.072 9.81005 12.702 9.45005 12.372 9.05005C12.342 9.03005 12.292 8.96005 12.222 8.87005C12.122 8.75005 11.952 8.55005 11.802 8.32005C11.682 8.17005 11.542 7.95005 11.412 7.73005C11.252 7.46005 11.112 7.19005 10.972 6.91005C10.9508 6.86465 10.9303 6.81949 10.9104 6.77458C10.7628 6.44127 10.3282 6.34382 10.0704 6.60158L4.34195 12.33C4.21195 12.46 4.09195 12.71 4.06195 12.88L3.52195 16.71C3.42195 17.39 3.61195 18.03 4.03195 18.46C4.39195 18.81 4.89195 19 5.43195 19C5.55195 19 5.67195 18.99 5.79195 18.97L9.63195 18.43C9.81195 18.4 10.062 18.28 10.182 18.15L15.9033 12.4287C16.1628 12.1692 16.0649 11.7237 15.7273 11.5797C15.6893 11.5634 15.6509 11.5469 15.612 11.53Z" fill="#292D32"/>
</svg>
