<svg width="25" height="24" viewBox="0 0 25 24" fill="none" xmlns="http://www.w3.org/2000/svg">
<path d="M17.7896 22.75H7.78955C7.37955 22.75 7.03955 22.41 7.03955 22C7.03955 21.59 7.37955 21.25 7.78955 21.25H17.7896C18.1996 21.25 18.5396 21.59 18.5396 22C18.5396 22.41 18.1996 22.75 17.7896 22.75Z" fill="#292D32"/>
<path d="M18.7896 2H6.78955C4.57955 2 2.78955 3.79 2.78955 6V15C2.78955 17.21 4.57955 19 6.78955 19H18.7896C20.9996 19 22.7896 17.21 22.7896 15V6C22.7896 3.79 20.9996 2 18.7896 2ZM10.7796 7.32C11.3396 7.32 11.7896 7.77 11.7896 8.32C11.7896 8.87 11.3396 9.32 10.7896 9.32C10.2396 9.32 9.78955 8.87 9.78955 8.32C9.78955 7.77 10.2296 7.32 10.7796 7.32ZM7.62955 7.32C8.18955 7.32 8.63955 7.77 8.63955 8.32C8.63955 8.87 8.18955 9.32 7.63955 9.32C7.08955 9.32 6.63955 8.87 6.63955 8.32C6.63955 7.77 7.06955 7.32 7.62955 7.32ZM18.0496 14.86H7.54955C7.12955 14.86 6.78955 14.52 6.78955 14.11C6.78955 13.7 7.11955 13.36 7.52955 13.36H18.0596C18.4696 13.36 18.8096 13.7 18.8096 14.11C18.8096 14.52 18.4696 14.86 18.0496 14.86ZM18.0496 9.07H14.3696C13.9596 9.07 13.6196 8.73 13.6196 8.32C13.6196 7.91 13.9596 7.57 14.3696 7.57H18.0496C18.4596 7.57 18.7996 7.91 18.7996 8.32C18.7996 8.73 18.4696 9.07 18.0496 9.07Z" fill="#292D32"/>
</svg>
