<svg width="25" height="24" viewBox="0 0 25 24" fill="none" xmlns="http://www.w3.org/2000/svg">
<path d="M20.9203 8.45C19.8703 3.83 15.8403 1.75 12.3003 1.75C12.3003 1.75 12.3003 1.75 12.2903 1.75C8.7603 1.75 4.7203 3.82 3.6703 8.44C2.5003 13.6 5.6603 17.97 8.5203 20.72C9.5803 21.74 10.9403 22.25 12.3003 22.25C13.6603 22.25 15.0203 21.74 16.0703 20.72C18.9303 17.97 22.0903 13.61 20.9203 8.45ZM12.3003 13.46C10.5603 13.46 9.1503 12.05 9.1503 10.31C9.1503 8.57 10.5603 7.16 12.3003 7.16C14.0403 7.16 15.4503 8.57 15.4503 10.31C15.4503 12.05 14.0403 13.46 12.3003 13.46Z" fill="#292D32"/>
</svg>
