<svg width="25" height="25" viewBox="0 0 25 25" fill="none" xmlns="http://www.w3.org/2000/svg">
<path d="M17.6862 2.76733H15.0862C11.8862 2.76733 9.88623 4.76733 9.88623 7.96733V12.0173H16.1362C16.5462 12.0173 16.8862 12.3573 16.8862 12.7673C16.8862 13.1773 16.5462 13.5173 16.1362 13.5173H9.88623V17.5673C9.88623 20.7673 11.8862 22.7673 15.0862 22.7673H17.6762C20.8762 22.7673 22.8762 20.7673 22.8762 17.5673V7.96733C22.8862 4.76733 20.8862 2.76733 17.6862 2.76733Z" fill="#292D32"/>
<path d="M5.44623 12.0173L7.51623 9.9473C7.66623 9.7973 7.73623 9.6073 7.73623 9.4173C7.73623 9.2273 7.66623 9.0273 7.51623 8.8873C7.22623 8.5973 6.74623 8.5973 6.45623 8.8873L3.10623 12.2373C2.81623 12.5273 2.81623 13.0073 3.10623 13.2973L6.45623 16.6473C6.74623 16.9373 7.22623 16.9373 7.51623 16.6473C7.80623 16.3573 7.80623 15.8773 7.51623 15.5873L5.44623 13.5173H9.88623V12.0173H5.44623V12.0173Z" fill="#292D32"/>
</svg>
