<svg width="31" height="30" viewBox="0 0 31 30" fill="none" xmlns="http://www.w3.org/2000/svg">
<path d="M25.7363 11.525C23.4738 11.525 22.5488 9.92504 23.6738 7.96254C24.3238 6.82504 23.9363 5.37504 22.7988 4.72504L20.6363 3.48754C19.6488 2.90004 18.3738 3.25004 17.7863 4.23754L17.6488 4.47504C16.5238 6.43754 14.6738 6.43754 13.5363 4.47504L13.3988 4.23754C12.8363 3.25004 11.5613 2.90004 10.5738 3.48754L8.41133 4.72504C7.27383 5.37504 6.88633 6.83754 7.53633 7.97504C8.67383 9.92504 7.74883 11.525 5.48633 11.525C4.18633 11.525 3.11133 12.5875 3.11133 13.9V16.1C3.11133 17.4 4.17383 18.475 5.48633 18.475C7.74883 18.475 8.67383 20.075 7.53633 22.0375C6.88633 23.175 7.27383 24.625 8.41133 25.275L10.5738 26.5125C11.5613 27.1 12.8363 26.75 13.4238 25.7625L13.5613 25.525C14.6863 23.5625 16.5363 23.5625 17.6738 25.525L17.8113 25.7625C18.3988 26.75 19.6738 27.1 20.6613 26.5125L22.8238 25.275C23.9613 24.625 24.3488 23.1625 23.6988 22.0375C22.5613 20.075 23.4863 18.475 25.7488 18.475C27.0488 18.475 28.1238 17.4125 28.1238 16.1V13.9C28.1113 12.6 27.0488 11.525 25.7363 11.525ZM15.6113 19.0625C13.3738 19.0625 11.5488 17.2375 11.5488 15C11.5488 12.7625 13.3738 10.9375 15.6113 10.9375C17.8488 10.9375 19.6738 12.7625 19.6738 15C19.6738 17.2375 17.8488 19.0625 15.6113 19.0625Z" fill="#292D32"/>
</svg>
