<svg width="25" height="25" viewBox="0 0 25 25" fill="none" xmlns="http://www.w3.org/2000/svg">
<path d="M18.7491 10.2571C18.6491 10.2571 18.5491 10.2371 18.4491 10.1971C18.0691 10.0271 17.8991 9.58709 18.0591 9.20709C18.2491 8.77709 18.1391 8.14709 17.7891 7.62709C17.4391 7.09709 16.9091 6.73709 16.4291 6.76709C15.9891 6.76709 15.6791 6.43709 15.6691 6.02709C15.6691 5.60709 15.9991 5.27709 16.4091 5.26709C17.4391 5.24709 18.4091 5.83709 19.0391 6.78709C19.6791 7.74709 19.8291 8.89709 19.4391 9.79709C19.3191 10.0871 19.0391 10.2571 18.7491 10.2571Z" fill="#292D32"/>
<path d="M21.8591 11.2471C21.7891 11.2471 21.7291 11.2371 21.6591 11.2171C21.2591 11.1071 21.0291 10.6971 21.1391 10.2971C21.5191 8.93707 21.1991 7.31707 20.2891 5.95707C19.3791 4.59707 17.9991 3.68707 16.5891 3.51707C16.1791 3.46707 15.8891 3.09707 15.9391 2.68707C15.9891 2.27707 16.3691 1.97707 16.7691 2.03707C18.5991 2.25707 20.3791 3.41707 21.5291 5.13707C22.6791 6.85707 23.0691 8.93707 22.5791 10.7171C22.4891 11.0271 22.1891 11.2471 21.8591 11.2471Z" fill="#292D32"/>
<path d="M17.159 12.5471C17.159 12.8471 16.909 13.0971 16.609 13.0971H3.46904C3.16904 13.0971 2.91904 12.8471 2.91904 12.5471C2.91904 12.2471 3.16904 11.9971 3.46904 11.9971H4.20904L4.48904 10.6771C4.74904 9.39705 5.29904 8.22705 7.47904 8.22705H12.609C14.789 8.22705 15.329 9.40705 15.599 10.6771L15.879 11.9971H16.619C16.909 11.9971 17.159 12.2471 17.159 12.5471Z" fill="#292D32"/>
<path d="M17.469 16.677C17.359 15.477 17.039 14.187 14.699 14.187H5.37905C3.03905 14.187 2.71905 15.477 2.60905 16.677L2.19905 21.127C2.14905 21.677 2.32905 22.237 2.70905 22.657C3.09905 23.077 3.63905 23.317 4.22905 23.317H5.59905C6.77905 23.317 7.00905 22.637 7.15905 22.197L7.30905 21.757C7.47905 21.257 7.51905 21.127 8.17905 21.127H11.919C12.579 21.127 12.599 21.197 12.789 21.757L12.939 22.197C13.089 22.647 13.309 23.317 14.499 23.317H15.869C16.449 23.317 16.999 23.077 17.389 22.657C17.769 22.237 17.949 21.687 17.899 21.127L17.469 16.677ZM7.84905 18.197H5.65905C5.35905 18.197 5.10905 17.947 5.10905 17.647C5.10905 17.347 5.35905 17.097 5.65905 17.097H7.84905C8.14905 17.097 8.39905 17.347 8.39905 17.647C8.39905 17.947 8.14905 18.197 7.84905 18.197ZM14.419 18.197H12.229C11.929 18.197 11.679 17.947 11.679 17.647C11.679 17.347 11.929 17.097 12.229 17.097H14.419C14.719 17.097 14.969 17.347 14.969 17.647C14.969 17.947 14.719 18.197 14.419 18.197Z" fill="#292D32"/>
</svg>
