<svg width="25" height="25" viewBox="0 0 25 25" fill="none" xmlns="http://www.w3.org/2000/svg">
<path d="M21.8918 5.99733C20.2818 5.83733 18.6718 5.71733 17.0518 5.62733V5.61733L16.8318 4.31733C16.6818 3.39733 16.4618 2.01733 14.1218 2.01733H11.5018C9.17175 2.01733 8.95175 3.33733 8.79175 4.30733L8.58175 5.58733C7.65175 5.64733 6.72175 5.70733 5.79175 5.79733L3.75175 5.99733C3.33175 6.03733 3.03175 6.40733 3.07175 6.81733C3.11175 7.22733 3.47175 7.52733 3.89175 7.48733L5.93175 7.28733C11.1718 6.76733 16.4518 6.96733 21.7518 7.49733C21.7818 7.49733 21.8018 7.49733 21.8318 7.49733C22.2118 7.49733 22.5418 7.20733 22.5818 6.81733C22.6118 6.40733 22.3118 6.03733 21.8918 5.99733Z" fill="#292D32"/>
<path d="M20.0518 8.90733C19.8118 8.65733 19.4818 8.51733 19.1418 8.51733H6.50177C6.16177 8.51733 5.82177 8.65733 5.59177 8.90733C5.36177 9.15733 5.23177 9.49733 5.25177 9.84733L5.87177 20.1073C5.98177 21.6273 6.12177 23.5273 9.61177 23.5273H16.0318C19.5218 23.5273 19.6618 21.6373 19.7718 20.1073L20.3918 9.85733C20.4118 9.49733 20.2818 9.15733 20.0518 8.90733ZM14.4818 18.5173H11.1518C10.7418 18.5173 10.4018 18.1773 10.4018 17.7673C10.4018 17.3573 10.7418 17.0173 11.1518 17.0173H14.4818C14.8918 17.0173 15.2318 17.3573 15.2318 17.7673C15.2318 18.1773 14.8918 18.5173 14.4818 18.5173ZM15.3218 14.5173H10.3218C9.91177 14.5173 9.57177 14.1773 9.57177 13.7673C9.57177 13.3573 9.91177 13.0173 10.3218 13.0173H15.3218C15.7318 13.0173 16.0718 13.3573 16.0718 13.7673C16.0718 14.1773 15.7318 14.5173 15.3218 14.5173Z" fill="#292D32"/>
</svg>
