<svg width="25" height="25" viewBox="0 0 25 25" fill="none" xmlns="http://www.w3.org/2000/svg">
<path d="M22.5053 11.5074L21.1453 9.92739C20.8853 9.62739 20.6753 9.06739 20.6753 8.66739V6.96739C20.6753 5.90739 19.8053 5.03739 18.7453 5.03739H17.0453C16.6553 5.03739 16.0853 4.82739 15.7853 4.56739L14.2053 3.20739C13.5153 2.61739 12.3853 2.61739 11.6853 3.20739L10.1153 4.57739C9.81532 4.82739 9.24532 5.03739 8.85532 5.03739H7.12532C6.06532 5.03739 5.19532 5.90739 5.19532 6.96739V8.67739C5.19532 9.06739 4.98532 9.62739 4.73532 9.92739L3.38532 11.5174C2.80532 12.2074 2.80532 13.3274 3.38532 14.0174L4.73532 15.6074C4.98532 15.9074 5.19532 16.4674 5.19532 16.8574V18.5674C5.19532 19.6274 6.06532 20.4974 7.12532 20.4974H8.85532C9.24532 20.4974 9.81532 20.7074 10.1153 20.9674L11.6953 22.3274C12.3853 22.9174 13.5153 22.9174 14.2153 22.3274L15.7953 20.9674C16.0953 20.7074 16.6553 20.4974 17.0553 20.4974H18.7553C19.8153 20.4974 20.6853 19.6274 20.6853 18.5674V16.8674C20.6853 16.4774 20.8953 15.9074 21.1553 15.6074L22.5153 14.0274C23.0953 13.3374 23.0953 12.1974 22.5053 11.5074ZM17.1053 10.8774L12.2753 15.7074C12.1353 15.8474 11.9453 15.9274 11.7453 15.9274C11.5453 15.9274 11.3553 15.8474 11.2153 15.7074L8.79532 13.2874C8.50532 12.9974 8.50532 12.5174 8.79532 12.2274C9.08532 11.9374 9.56532 11.9374 9.85532 12.2274L11.7453 14.1174L16.0453 9.81739C16.3353 9.52739 16.8153 9.52739 17.1053 9.81739C17.3953 10.1074 17.3953 10.5874 17.1053 10.8774Z" fill="#292D32"/>
</svg>
